<svg xmlns="http://www.w3.org/2000/svg" width="1331" height="984" viewBox="0 0 1331 984" font-family="Arial, sans-serif">
<rect width="100%" height="100%" fill="#faf8f3"/>
<text x="20" y="34" font-size="22" font-weight="bold" fill="#222">Хата Олега — схема из игры (зеркально к плану БТИ)</text>
<rect x="968.0" y="236.0" width="253.0" height="605.0" fill="#dfe7f0"/>
<rect x="618.2" y="236.0" width="336.6" height="605.0" fill="#efe4cf"/>
<rect x="330.0" y="236.0" width="275.0" height="209.0" fill="#e4ecd2"/>
<polygon points="605.0,458.2 330.0,458.2 330.0,690.3 511.5,690.3 605.0,614.4" fill="#d6ecee"/>
<polygon points="605.0,614.4 511.5,690.3 511.5,703.5 330.0,703.5 330.0,841.0 605.0,841.0" fill="#ecd9c8"/>
<rect x="610.5" y="101.8" width="352.0" height="88.0" fill="#e2e0dc"/>
<rect x="44.0" y="643.0" width="242.0" height="286.0" fill="#eee"/>
<rect x="1058.0" y="767.7" width="161.3" height="71.7" fill="#fff" fill-opacity="0.85" stroke="#555" stroke-width="1.2" />
<rect x="969.6" y="364.5" width="47.3" height="105.9" fill="#fff" fill-opacity="0.85" stroke="#555" stroke-width="1.2" />
<rect x="1143.6" y="368.3" width="74.1" height="158.9" fill="#fff" fill-opacity="0.85" stroke="#555" stroke-width="1.2" />
<rect x="883.1" y="396.5" width="69.3" height="163.0" fill="#fff" fill-opacity="0.85" stroke="#555" stroke-width="1.2" />
<rect x="748.4" y="473.1" width="65.2" height="97.8" fill="#fff" fill-opacity="0.85" stroke="#555" stroke-width="1.2" />
<rect x="619.8" y="423.3" width="37.5" height="158.9" fill="#fff" fill-opacity="0.85" stroke="#555" stroke-width="1.2" />
<rect x="624.7" y="242.5" width="28.5" height="26.1" fill="#fff" fill-opacity="0.85" stroke="#555" stroke-width="1.2" />
<rect x="557.7" y="396.1" width="45.6" height="47.3" fill="#fff" fill-opacity="0.85" stroke="#555" stroke-width="1.2" />
<rect x="412.9" y="396.1" width="109.2" height="47.3" fill="#fff" fill-opacity="0.85" stroke="#555" stroke-width="1.2" />
<rect x="484.9" y="410.8" width="36.7" height="30.1" fill="#7aa7e0" fill-opacity="0.9" stroke="#555" stroke-width="1.2" stroke-dasharray="3 2"/>
<rect x="331.6" y="367.6" width="45.6" height="75.8" fill="#fff" fill-opacity="0.85" stroke="#555" stroke-width="1.2" />
<rect x="331.6" y="278.3" width="45.6" height="53.0" fill="#fff" fill-opacity="0.85" stroke="#555" stroke-width="1.2" />
<rect x="483.7" y="242.5" width="61.1" height="48.9" fill="#fff" fill-opacity="0.85" stroke="#555" stroke-width="1.2" />
<rect x="331.6" y="459.8" width="141.0" height="57.0" fill="#fff" fill-opacity="0.85" stroke="#555" stroke-width="1.2" />
<rect x="331.6" y="553.3" width="37.5" height="40.7" fill="#fff" fill-opacity="0.85" stroke="#555" stroke-width="1.2" />
<rect x="331.6" y="619.4" width="47.3" height="32.6" fill="#fff" fill-opacity="0.85" stroke="#555" stroke-width="1.2" />
<rect x="390.4" y="796.2" width="93.7" height="43.2" fill="#fff" fill-opacity="0.85" stroke="#555" stroke-width="1.2" />
<rect x="618.6" y="109.9" width="40.7" height="24.4" fill="#fff" fill-opacity="0.85" stroke="#555" stroke-width="1.2" />
<rect x="286.0" y="189.8" width="104.5" height="46.2" fill="#3a3632"/>
<rect x="390.5" y="189.8" width="132.0" height="46.2" fill="#bfe0f5" stroke="#3a3632" stroke-width="1"/>
<rect x="522.5" y="189.8" width="154.0" height="46.2" fill="#3a3632"/>
<rect x="676.5" y="189.8" width="154.0" height="46.2" fill="#bfe0f5" stroke="#3a3632" stroke-width="1"/>
<rect x="830.5" y="189.8" width="11.0" height="46.2" fill="#3a3632"/>
<rect x="841.5" y="189.8" width="77.0" height="46.2" fill="#bfe0f5" stroke="#3a3632" stroke-width="1" stroke-dasharray="4 3"/>
<rect x="918.5" y="189.8" width="104.5" height="46.2" fill="#3a3632"/>
<rect x="1023.0" y="189.8" width="143.0" height="46.2" fill="#bfe0f5" stroke="#3a3632" stroke-width="1"/>
<rect x="1166.0" y="189.8" width="99.0" height="46.2" fill="#3a3632"/>
<rect x="286.0" y="841.0" width="979.0" height="46.2" fill="#3a3632"/>
<rect x="1221.0" y="236.0" width="44.0" height="605.0" fill="#3a3632"/>
<rect x="286.0" y="236.0" width="44.0" height="500.5" fill="#3a3632"/>
<rect x="286.0" y="736.5" width="44.0" height="88.0" fill="#8a4a2a"/>
<rect x="286.0" y="824.5" width="44.0" height="16.5" fill="#3a3632"/>
<rect x="954.8" y="236.0" width="13.2" height="412.5" fill="#3a3632"/>
<rect x="954.8" y="736.5" width="13.2" height="104.5" fill="#3a3632"/>
<rect x="605.0" y="236.0" width="13.2" height="49.5" fill="#3a3632"/>
<rect x="605.0" y="376.8" width="13.2" height="244.2" fill="#3a3632"/>
<rect x="330.0" y="445.0" width="275.0" height="13.2" fill="#3a3632"/>
<rect x="330.0" y="690.3" width="181.5" height="13.2" fill="#3a3632"/>
<rect x="22.0" y="643.0" width="22.0" height="286.0" fill="#3a3632"/>
<rect x="22.0" y="621.0" width="264.0" height="22.0" fill="#3a3632"/>
<rect x="22.0" y="929.0" width="264.0" height="22.0" fill="#3a3632"/>
<rect x="286.0" y="887.2" width="44.0" height="63.8" fill="#3a3632"/>
<polygon points="601.4,610.3 584.9,624.8 592.1,633.1 608.6,618.5" fill="#3a3632"/>
<polygon points="527.1,675.8 507.9,692.8 515.1,701.0 534.4,684.0" fill="#3a3632"/>
<rect x="610.5" y="101.8" width="352.0" height="88.0" fill="none" stroke="#6f7d63" stroke-width="4"/>
<text x="1138.7" y="806.8" font-size="11" text-anchor="middle" fill="#333" ><tspan x="1138.7" dy="0em">Комп Олега</tspan></text>
<text x="993.3" y="420.8" font-size="11" text-anchor="middle" fill="#333" transform="rotate(-90 993.3 417.5)"><tspan x="993.3" dy="0em">Стол сестры</tspan></text>
<text x="1180.7" y="451.0" font-size="11" text-anchor="middle" fill="#333" ><tspan x="1180.7" dy="0em">Кровать Олега</tspan></text>
<text x="917.7" y="481.3" font-size="11" text-anchor="middle" fill="#333" ><tspan x="917.7" dy="0em">Диван</tspan></text>
<text x="781.0" y="525.3" font-size="11" text-anchor="middle" fill="#333" ><tspan x="781.0" dy="0em">Праздничный стол</tspan></text>
<text x="638.6" y="506.0" font-size="11" text-anchor="middle" fill="#333" transform="rotate(-90 638.6 502.8)"><tspan x="638.6" dy="0em">Стенка + телик</tspan></text>
<text x="639.0" y="258.8" font-size="11" text-anchor="middle" fill="#333" ><tspan x="639.0" dy="0em">Фикус</tspan></text>
<text x="580.6" y="423.0" font-size="11" text-anchor="middle" fill="#333" ><tspan x="580.6" dy="-0.55em">Холо-</tspan><tspan x="580.6" dy="1.1em">дильник</tspan></text>
<text x="447.1" y="423.0" font-size="11" text-anchor="middle" fill="#333" ><tspan x="447.1" dy="-0.55em">Тумба</tspan><tspan x="447.1" dy="1.1em">с ящиками</tspan></text>
<text x="503.2" y="429.1" font-size="11" text-anchor="middle" fill="#0b3d7a" ><tspan x="503.2" dy="-0.55em">Микро-</tspan><tspan x="503.2" dy="1.1em">волновка</tspan></text>
<text x="354.4" y="408.7" font-size="11" text-anchor="middle" fill="#333" transform="rotate(-90 354.4 405.5)"><tspan x="354.4" dy="0em">Раковина</tspan></text>
<text x="354.4" y="308.0" font-size="11" text-anchor="middle" fill="#333" ><tspan x="354.4" dy="0em">Плита</tspan></text>
<text x="514.3" y="270.2" font-size="11" text-anchor="middle" fill="#333" ><tspan x="514.3" dy="0em">Стол</tspan></text>
<text x="402.1" y="491.6" font-size="11" text-anchor="middle" fill="#333" ><tspan x="402.1" dy="0em">Ванна</tspan></text>
<text x="350.4" y="577.0" font-size="11" text-anchor="middle" fill="#333" ><tspan x="350.4" dy="0em">Раков.</tspan></text>
<text x="355.3" y="638.9" font-size="11" text-anchor="middle" fill="#333" ><tspan x="355.3" dy="0em">Унитаз</tspan></text>
<text x="437.3" y="821.0" font-size="11" text-anchor="middle" fill="#333" ><tspan x="437.3" dy="0em">Гардероб</tspan></text>
<text x="639.0" y="125.4" font-size="11" text-anchor="middle" fill="#333" ><tspan x="639.0" dy="0em">Мангал</tspan></text>
<text x="1039.5" y="566.0" font-size="16" font-weight="bold" text-anchor="middle" fill="#1d1b19"><tspan x="1039.5" dy="0em">Спальня</tspan></text>
<text x="1039.5" y="585.6" font-size="12" text-anchor="middle" fill="#555"><tspan x="1039.5" dy="0em">≈23.1 м²</tspan></text>
<text x="781.0" y="709.0" font-size="16" font-weight="bold" text-anchor="middle" fill="#1d1b19"><tspan x="781.0" dy="0em">Зал</tspan></text>
<text x="781.0" y="728.6" font-size="12" text-anchor="middle" fill="#555"><tspan x="781.0" dy="0em">≈30.7 м²</tspan></text>
<text x="467.5" y="348.2" font-size="16" font-weight="bold" text-anchor="middle" fill="#1d1b19"><tspan x="467.5" dy="0em">Кухня</tspan></text>
<text x="467.5" y="367.8" font-size="12" text-anchor="middle" fill="#555"><tspan x="467.5" dy="0em">≈8.7 м²</tspan></text>
<text x="563.2" y="524.2" font-size="16" font-weight="bold" text-anchor="middle" fill="#1d1b19"><tspan x="563.2" dy="0em">Санузел</tspan></text>
<text x="563.2" y="543.8" font-size="12" text-anchor="middle" fill="#555"><tspan x="563.2" dy="0em">≈9.1 м²</tspan></text>
<text x="555.5" y="731.0" font-size="16" font-weight="bold" text-anchor="middle" fill="#1d1b19"><tspan x="555.5" dy="0em">Прихожая</tspan></text>
<text x="555.5" y="750.6" font-size="12" text-anchor="middle" fill="#555"><tspan x="555.5" dy="0em">≈6.4 м²</tspan></text>
<text x="786.5" y="153.5" font-size="16" font-weight="bold" text-anchor="middle" fill="#1d1b19"><tspan x="786.5" dy="0em">Балкон</tspan></text>
<text x="786.5" y="173.1" font-size="12" text-anchor="middle" fill="#555"><tspan x="786.5" dy="0em">≈4.7 м²</tspan></text>
<text x="165.0" y="852.0" font-size="16" font-weight="bold" text-anchor="middle" fill="#1d1b19"><tspan x="165.0" dy="0em">Подъезд</tspan></text>
<text x="165.0" y="871.6" font-size="12" text-anchor="middle" fill="#555"><tspan x="165.0" dy="0em">≈10.4 м²</tspan></text>
<text x="251.0" y="786.0" font-size="13" font-weight="bold" text-anchor="middle" fill="#8a4a2a"><tspan x="251.0" dy="0em">ВХОД</tspan></text>
<circle cx="418.0" cy="742.0" r="9" fill="#d9822b"/>
<line x1="418.0" y1="742.0" x2="454.7" y2="742.0" stroke="#d9822b" stroke-width="3"/>
<text x="418.0" y="768.1" font-size="11" text-anchor="middle" fill="#a0561a"><tspan x="418.0" dy="0em">Олег</tspan></text>
<line x1="330.0" y1="923.5" x2="411.5" y2="923.5" stroke="#333" stroke-width="2"/>
<text x="370.7" y="917.8" font-size="11" text-anchor="middle" fill="#333"><tspan x="370.7" dy="0em">1 м</tspan></text>
<text x="444.1" y="927.6" font-size="11" fill="#555"><tspan x="444.1" dy="0em">масштаб ×1.35 к реальному · окна — голубые · балконная дверь — пунктир · синее с пунктиром — стоит сверху</tspan></text>
</svg>